<!-- <svg xmlns="http://www.w3.org/2000/svg" viewBox="0 0 841.9 595.3">
    <g fill="#61DAFB">
        <path d="M666.3 296.5c0-32.5-40.7-63.3-103.1-82.4 14.4-63.6 8-114.2-20.2-130.4-6.5-3.8-14.1-5.6-22.4-5.6v22.3c4.6 0 8.3.9 11.4 2.6 13.6 7.8 19.5 37.5 14.9 75.7-1.1 9.4-2.9 19.3-5.1 29.4-19.6-4.8-41-8.5-63.5-10.9-13.5-18.5-27.5-35.3-41.6-50 32.6-30.3 63.2-46.9 84-46.9V78c-27.5 0-63.5 19.6-99.9 53.6-36.4-33.8-72.4-53.2-99.9-53.2v22.3c20.7 0 51.4 16.5 84 46.6-14 14.7-28 31.4-41.3 49.9-22.6 2.4-44 6.1-63.6 11-2.3-10-4-19.7-5.2-29-4.7-38.2 1.1-67.9 14.6-75.8 3-1.8 6.9-2.6 11.5-2.6V78.5c-8.4 0-16 1.8-22.6 5.6-28.1 16.2-34.4 66.7-19.9 130.1-62.2 19.2-102.7 49.9-102.7 82.3 0 32.5 40.7 63.3 103.1 82.4-14.4 63.6-8 114.2 20.2 130.4 6.5 3.8 14.1 5.6 22.5 5.6 27.5 0 63.5-19.6 99.9-53.6 36.4 33.8 72.4 53.2 99.9 53.2 8.4 0 16-1.8 22.6-5.6 28.1-16.2 34.4-66.7 19.9-130.1 62-19.1 102.5-49.9 102.5-82.3zm-130.2-66.7c-3.7 12.9-8.3 26.2-13.5 39.5-4.1-8-8.4-16-13.1-24-4.6-8-9.5-15.8-14.4-23.4 14.2 2.1 27.9 4.7 41 7.9zm-45.8 106.5c-7.8 13.5-15.8 26.3-24.1 38.2-14.9 1.3-30 2-45.2 2-15.1 0-30.2-.7-45-1.9-8.3-11.9-16.4-24.6-24.2-38-7.6-13.1-14.5-26.4-20.8-39.8 6.2-13.4 13.2-26.8 20.7-39.9 7.8-13.5 15.8-26.3 24.1-38.2 14.9-1.3 30-2 45.2-2 15.1 0 30.2.7 45 1.9 8.3 11.9 16.4 24.6 24.2 38 7.6 13.1 14.5 26.4 20.8 39.8-6.3 13.4-13.2 26.8-20.7 39.9zm32.3-13c5.4 13.4 10 26.8 13.8 39.8-13.1 3.2-26.9 5.9-41.2 8 4.9-7.7 9.8-15.6 14.4-23.7 4.6-8 8.9-16.1 13-24.1zM421.2 430c-9.3-9.6-18.6-20.3-27.8-32 9 .4 18.2.7 27.5.7 9.4 0 18.7-.2 27.8-.7-9 11.7-18.3 22.4-27.5 32zm-74.4-58.9c-14.2-2.1-27.9-4.7-41-7.9 3.7-12.9 8.3-26.2 13.5-39.5 4.1 8 8.4 16 13.1 24 4.7 8 9.5 15.8 14.4 23.4zM420.7 163c9.3 9.6 18.6 20.3 27.8 32-9-.4-18.2-.7-27.5-.7-9.4 0-18.7.2-27.8.7 9-11.7 18.3-22.4 27.5-32zm-74 58.9c-4.9 7.7-9.8 15.6-14.4 23.7-4.6 8-8.9 16-13 24-5.4-13.4-10-26.8-13.8-39.8 13.1-3.1 26.9-5.8 41.2-7.9zm-90.5 125.2c-35.4-15.1-58.3-34.9-58.3-50.6 0-15.7 22.9-35.6 58.3-50.6 8.6-3.7 18-7 27.7-10.1 5.7 19.6 13.2 40 22.5 60.9-9.2 20.8-16.6 41.1-22.2 60.6-9.9-3.1-19.3-6.5-28-10.2zM310 490c-13.6-7.8-19.5-37.5-14.9-75.7 1.1-9.4 2.9-19.3 5.1-29.4 19.6 4.8 41 8.5 63.5 10.9 13.5 18.5 27.5 35.3 41.6 50-32.6 30.3-63.2 46.9-84 46.9-4.5-.1-8.3-1-11.3-2.7zm237.2-76.2c4.7 38.2-1.1 67.9-14.6 75.8-3 1.8-6.9 2.6-11.5 2.6-20.7 0-51.4-16.5-84-46.6 14-14.7 28-31.4 41.3-49.9 22.6-2.4 44-6.1 63.6-11 2.3 10.1 4.1 19.8 5.2 29.1zm38.5-66.7c-8.6 3.7-18 7-27.7 10.1-5.7-19.6-13.2-40-22.5-60.9 9.2-20.8 16.6-41.1 22.2-60.6 9.9 3.1 19.3 6.5 28.1 10.2 35.4 15.1 58.3 34.9 58.3 50.6-.1 15.7-23 35.6-58.4 50.6zM320.8 78.4z"/>
        <circle cx="420.9" cy="296.5" r="45.7"/>
        <path d="M520.5 78.1z"/>
    </g>
</svg> -->

<?xml version="1.0" encoding="iso-8859-1"?>
<!-- Uploaded to: SVG Repo, www.svgrepo.com, Generator: SVG Repo Mixer Tools -->
<svg height="800px" width="800px" version="1.1" id="Layer_1" xmlns="http://www.w3.org/2000/svg" xmlns:xlink="http://www.w3.org/1999/xlink" 
	 viewBox="0 0 512 512" xml:space="preserve">
<path style="fill:#4C4B4F;" d="M389.517,380.128h-64.556v72.564c0,19.27,15.622,34.892,34.892,34.892
	c19.27,0,34.892-15.622,34.892-34.892v-72.706C393.014,380.078,391.272,380.128,389.517,380.128z"/>
<path style="fill:#5A595C;" d="M62.775,191.154c-24.72-40.725-24.282-91.679,1.812-132.27c6.681-10.392,3.672-24.232-6.721-30.912
	c-10.394-6.682-24.231-3.672-30.912,6.72C8.547,63.328-0.757,96.452,0.048,130.483c0.805,34.032,11.666,66.679,31.407,94.411
	l10.784,15.149C46.379,222.46,53.399,205.99,62.775,191.154z"/>
<g>
	<path style="fill:#4C4B4F;" d="M352.619,160.683L352.619,160.683c-74.458,0-134.819,60.361-134.819,134.817l0,0
		c0,54.08,43.84,97.921,97.921,97.921h73.795c54.08,0,97.921-43.841,97.921-97.921l0,0
		C487.436,221.043,427.077,160.683,352.619,160.683z"/>
	<path style="fill:#4C4B4F;" d="M310.116,167.655c-29.432-31.777-71.507-51.678-118.236-51.678l0,0
		c-88.99,0-161.132,72.141-161.132,161.132v116.313v59.269c0,19.27,15.622,34.892,34.892,34.892s34.892-15.622,34.892-34.892
		v-59.269h97.675v59.269c0,19.27,15.622,34.892,34.892,34.892c19.271,0,34.892-15.622,34.892-34.892v-59.269h48.121L310.116,167.655
		z"/>
</g>
<path style="fill:#5A595C;" d="M509.654,172.067c0,0-55.783-23.236-94.999,3.714l0,0c-18.571-9.643-39.667-15.098-62.038-15.098
	c-22.371,0-43.465,5.455-62.038,15.098l0,0c-39.215-26.951-94.999-3.714-94.999-3.714s-13.656,63.589,24.93,96.401
	c-1.778,8.734-2.712,17.775-2.712,27.034l0,0c0,54.08,43.84,97.921,97.921,97.921h73.795c54.08,0,97.921-43.841,97.921-97.921l0,0
	c0-9.259-0.934-18.299-2.712-27.033C523.31,235.656,509.654,172.067,509.654,172.067z"/>
<g>
	<path style="opacity:0.3;fill:#20272E;enable-background:new    ;" d="M509.654,172.067c0,0-55.783-23.236-94.999,3.714l0,0
		c-18.571-9.643-39.667-15.098-62.038-15.098v232.738h36.898c54.08,0,97.921-43.841,97.921-97.921l0,0
		c0-9.259-0.934-18.299-2.712-27.033C523.31,235.656,509.654,172.067,509.654,172.067z"/>
	<path style="fill:#20272E;" d="M309.684,281.474c-0.58,0-1.167-0.054-1.758-0.162l-42.073-7.8
		c-5.206-0.965-8.643-5.968-7.678-11.174c0.965-5.205,5.967-8.638,11.174-7.678l42.073,7.8c5.206,0.965,8.643,5.968,7.678,11.174
		C318.244,278.247,314.215,281.474,309.684,281.474z"/>
	<path style="fill:#20272E;" d="M395.553,281.474c-4.531,0-8.56-3.225-9.415-7.841c-0.965-5.206,2.473-10.209,7.678-11.174
		l42.073-7.8c5.209-0.966,10.208,2.473,11.174,7.678c0.965,5.206-2.473,10.209-7.678,11.174l-42.073,7.8
		C396.721,281.42,396.133,281.474,395.553,281.474z"/>
	<circle style="fill:#20272E;" cx="287.8" cy="295.035" r="14.285"/>
	<circle style="fill:#20272E;" cx="417.435" cy="295.035" r="14.285"/>
	<path style="fill:#20272E;" d="M401.106,325.46c0,26.778-21.709,48.487-48.487,48.487s-48.487-21.709-48.487-48.487L401.106,325.46
		L401.106,325.46z"/>
	<path style="fill:#20272E;" d="M373.675,306.104c0,6.069-9.427,10.987-21.056,10.987s-21.056-4.92-21.056-10.987
		C331.563,300.036,373.675,300.036,373.675,306.104z"/>
</g>
</svg>
